<?xml version="1.0" encoding="UTF-8"?>
<svg id="_Слой_2" data-name="Слой 2" xmlns="http://www.w3.org/2000/svg" viewBox="0 0 9.27 11.81">
  <defs>
    <style>
      .cls-1 {
        fill: #f2f2f2;
      }
    </style>
  </defs>
  <g id="_Слой_1-2" data-name="Слой 1">
    <g>
      <path class="cls-1" d="m2.95,9.92c.12,0,.19-.02.25-.01.19.02.38.02.56.08.19.06.34.13.51-.04.08-.08.22-.13.34-.16.25-.08.5-.14.76-.21.08.18-.11.63-.4.8-.07.04-.14.06-.2.11-.27.21-.26.46.02.63.21.12.42.26.65.33.3.09.57-.01.81-.24.16-.16.37-.26.61-.43-.09.36-.25.58-.51.72-.4.22-.83.18-1.26.13-.05,0-.12-.05-.14-.03-.24.21-.55.12-.82.17-.26.05-.52.04-.79.05,0-.03,0-.05,0-.08.18-.06.39-.08.54-.19.15-.11.24-.3.36-.46-.42-.43-1.11-.5-1.28-1.16Zm1.44.7c-.16-.35.17-.49.29-.73-.11.02-.22.05-.29.12-.26.22-.37.24-.66.06-.05-.03-.11-.06-.16-.09,0,.01-.02.02-.03.04.17.19.34.39.52.59.04-.05.06-.09.09-.13.09.05.16.1.24.14Z"/>
      <path class="cls-1" d="m1.18,1.97c-.09-.02-.19-.03-.28-.05-.25-.05-.37.03-.37.3,0,.36.12.68.37.94.05.05.09.12.17.23-.32-.04-.42.13-.43.37-.03,0-.06,0-.09,0-.11-.21-.25-.42-.34-.64C.04,2.75-.04,2.34.02,1.92c.05-.42.3-.54.65-.31.17.11.35.2.52.3,0,.02,0,.04,0,.05Z"/>
      <path class="cls-1" d="m7.39,5.9c-.21.73-.78.92-1.41,1.03-.2.04-.38-.14-.33-.33.13-.55.25-.73.77-.7.32.02.64,0,.97,0Zm-.49.09c-.05.05-.12.1-.16.16-.15.2-.39.23-.57.05-.05-.05-.09-.11-.15-.17-.08.4-.03.51.25.55.37.06.64-.15.62-.59Z"/>
      <path class="cls-1" d="m8.41,1.97c.05-.5.29-.92.2-1.4-.12.03-.19.04-.27.06.18-.28.38-.51.69-.62.14-.05.24.02.24.17,0,.15-.02.31-.08.44-.2.42-.43.82-.65,1.23-.01.03-.05.04-.13.11Z"/>
      <path class="cls-1" d="m1.21,6.61c.19-.17.95-.29,1.18-.17.14.07.32.47.26.62-.02.06-.1.12-.16.13-.4.06-.77.09-1.05-.35-.06-.09-.15-.16-.23-.24Zm1.22.16c-.26.05-.53.14-.72-.16.13.41.45.48.72.16Z"/>
      <path class="cls-1" d="m5.84,4.44c.34.52.36.92.08,1.18-.32-.47-.35-.95-.08-1.18Z"/>
      <path class="cls-1" d="m6.89,5.13c-.04-.33.16-.49.33-.61.14-.1.32.01.42.17.08.13.14.28.24.48-.2-.1-.35-.22-.5-.23-.15,0-.3.11-.49.19Z"/>
      <path class="cls-1" d="m2.09,6.24c-.13-.25-.37-.45-.33-.77.01-.1.04-.2.09-.28.04-.06.13-.08.2-.12.02.07.05.13.05.2.02.32.03.63.05.95l-.06.02Z"/>
      <path class="cls-1" d="m5.17,2.01c.27-.24.79-.2.99.09.04.05.05.17.02.2-.06.06-.16.08-.24.09-.05,0-.14-.06-.14-.1-.02-.26-.18-.24-.36-.2-.09.02-.18,0-.27,0,0-.03,0-.05,0-.08Z"/>
      <path class="cls-1" d="m1.57,4.75c.09-.31.67-.76,1.01-.75.08,0,.19.05.24.11.05.06.05.17.07.26-.08-.02-.2-.01-.25-.06-.14-.14-.28-.1-.41-.02-.23.15-.44.31-.66.47Z"/>
      <path class="cls-1" d="m2.61,2.7c.07-.1.15-.19.22-.29,0-.02-.01-.04-.02-.06-.21.08-.41.15-.67.25.09-.31.41-.44.66-.32.16.08.25.08.37-.06.1-.12.25-.11.38.05-.44-.08-.6.32-.88.5-.02-.02-.04-.04-.06-.06Z"/>
      <path class="cls-1" d="m6.56,4.52c-.36-.37-.63-.79-1.23-.69.19-.18.37-.2.56-.12.3.13.66.52.67.81Z"/>
      <path class="cls-1" d="m2.88,3c0-.2.07-.26.24-.3.16-.04.31-.13.47-.19.07-.03.15-.06.22-.07.02,0,.07.08.06.09-.05.06-.09.14-.16.17-.2.1-.4.19-.61.28-.06.03-.14.02-.22.02Z"/>
      <path class="cls-1" d="m7.27,1.73c-.17.05-.31.11-.46.13-.07.01-.14-.04-.21-.06.02-.06.02-.15.06-.18.28-.23.54-.17.61.11Z"/>
      <path class="cls-1" d="m8.4,6.21c.18.14.38.26.54.43.14.14.11.32-.05.46-.18-.3-.35-.59-.52-.87,0,0,.02,0,.03-.01Z"/>
      <path class="cls-1" d="m7.39,11.08c.13-.15.26-.29.39-.45.06-.07.13-.15.14-.23.03-.25.2-.21.38-.2-.2.11-.31.24-.36.5-.03.17-.33.29-.5.43-.01-.01-.03-.03-.04-.04Z"/>
      <path class="cls-1" d="m4.21,2.64c.05.21.04.39-.14.52-.06.05-.16.04-.25.06.01-.1,0-.22.05-.29.08-.11.2-.18.33-.29Z"/>
      <path class="cls-1" d="m4.46,1.71c-.08.1-.15.24-.26.28-.1.04-.25-.03-.37-.05,0-.02,0-.04,0-.06-.07.03-.15.06-.26.11.09-.2.21-.32.36-.22.16.1.24.12.33-.06.02-.03.08-.05.12-.07.03.02.05.05.08.07Z"/>
      <path class="cls-1" d="m4.11,4.05c-.25-.1-.47-.19-.55.16,0,.02-.09.03-.13.03-.02,0-.04-.09-.03-.1.13-.12.25-.28.41-.35.15-.07.29.01.3.26Z"/>
      <path class="cls-1" d="m7,2.29c-.17.03-.32.07-.46.08-.05,0-.1-.07-.16-.1.04-.06.08-.14.13-.16.17-.05.36-.12.49.18Z"/>
      <path class="cls-1" d="m1.91,3.21c-.14.18-.28.37-.43.56-.13-.18,0-.35.1-.49.06-.08.18-.11.28-.16.02.03.03.06.05.09Z"/>
      <path class="cls-1" d="m5.21,1.72c.08-.19.57-.32.91-.24,0,.02,0,.04.01.07-.31.06-.62.12-.93.18Z"/>
      <path class="cls-1" d="m4.84,4.53c-.06.3-.1.52-.14.74-.18-.21-.14-.42-.07-.62.02-.05.13-.08.21-.13Z"/>
      <path class="cls-1" d="m4.67,2.93c-.22-.21-.12-.39-.04-.55.03-.06.15-.08.28-.14-.09.27-.16.46-.24.68Z"/>
      <path class="cls-1" d="m5.14,2.71c.1-.07.16-.12.27-.2-.14.01-.22.02-.34.03.09-.19.23-.21.36-.15.06.03.11.16.09.22-.06.16-.2.17-.38.1Z"/>
      <path class="cls-1" d="m3.24,3.33c.05-.15.06-.24.1-.31.03-.05.12-.06.18-.09.02.08.06.17.04.24-.02.08-.1.16-.17.19-.05.02-.13-.03-.15-.03Z"/>
      <path class="cls-1" d="m4.39,3.79c-.23-.25-.25-.38-.1-.6.14.16.2.48.1.6Z"/>
      <path class="cls-1" d="m1.8,2.94c.11-.09.2-.18.31-.25.04-.03.13-.03.16,0,.03.03.04.11.03.16-.06.16-.26.21-.49.09Z"/>
      <path class="cls-1" d="m1.01,6.01c-.04-.08-.09-.13-.09-.18,0-.1.01-.21.02-.31.05.01.14.01.15.03.03.11.04.23.04.35,0,.03-.06.05-.12.11Z"/>
      <path class="cls-1" d="m7.26,3.23c0-.08-.02-.16,0-.24.01-.07.06-.13.1-.19,0,0,.12.03.13.07.03.07.04.16.01.23-.03.07-.11.11-.17.16-.02-.01-.04-.02-.07-.03Z"/>
      <path class="cls-1" d="m4.21,4.63c-.19.13-.33.24-.48.33-.03.02-.1-.02-.15-.03.01-.05,0-.13.03-.15.16-.08.32-.14.49-.2.02,0,.06.02.11.04Z"/>
      <path class="cls-1" d="m1.69,9.36c-.07-.02-.18-.03-.21-.08-.08-.11-.12-.25-.18-.37.03-.02.06-.03.09-.05.11.14.22.27.33.41,0,.03-.02.05-.03.08Z"/>
      <path class="cls-1" d="m4.84,4.33c.04-.12.08-.25.14-.37.03-.06.11-.09.18-.12.01,0,.07.04.07.05-.02.06-.03.13-.07.17-.09.11-.18.21-.28.31-.01-.02-.03-.03-.04-.05Z"/>
      <path class="cls-1" d="m6.63,2.68c.08.16.16.31.26.51-.31-.1-.41-.35-.26-.51Z"/>
      <path class="cls-1" d="m3.79,3.56c-.2-.07-.27.29-.52.07.16-.07.32-.13.48-.2.01.04.03.09.04.13Z"/>
      <path class="cls-1" d="m5.86,3.16c-.13.24-.31.26-.56.06.2-.02.37-.04.56-.06Z"/>
      <path class="cls-1" d="m6.94,2.43c.08.11.14.17.16.24,0,.02-.1.12-.11.11-.08-.06-.14-.12-.2-.19,0,0,.07-.08.15-.16Z"/>
      <path class="cls-1" d="m5.02,1.75c-.09.1-.16.18-.23.26-.03-.06-.11-.13-.1-.16.04-.08.12-.14.19-.2,0,0,.07.06.13.1Z"/>
      <path class="cls-1" d="m3.51,5.56c-.11.15-.22.3-.33.45-.02-.02-.05-.03-.07-.05.1-.16.2-.31.31-.47.03.02.06.04.09.06Z"/>
      <path class="cls-1" d="m2.91,8.72c.01.22.02.45.03.67-.03,0-.05,0-.08,0v-.67s.03,0,.04,0Z"/>
      <path class="cls-1" d="m4.12,5.16c.1-.15.2-.3.31-.47.14.29-.18.33-.24.51-.02-.01-.05-.02-.07-.03Z"/>
      <path class="cls-1" d="m6.08,2.6c.08.11.13.17.17.25,0,0-.1.09-.11.08-.06-.04-.12-.1-.17-.16-.01-.02.05-.08.11-.17Z"/>
      <path class="cls-1" d="m8.33,7.91c.18-.13.31-.22.43-.3,0,.18-.15.31-.43.3Z"/>
      <path class="cls-1" d="m4.45,3.98c-.04.11-.08.23-.12.34-.04-.01-.08-.03-.12-.04.04-.11.09-.22.13-.34.04.01.07.03.11.04Z"/>
    </g>
  </g>
</svg>