<?xml version="1.0" encoding="UTF-8"?>
<svg id="_Слой_2" data-name="Слой 2" xmlns="http://www.w3.org/2000/svg" viewBox="0 0 154.68 190.32">
  <defs>
    <style>
      .cls-1 {
        fill: #f2f2f2;
      }
    </style>
  </defs>
  <g id="_Слой_1-2" data-name="Слой 1">
    <g>
      <path class="cls-1" d="m41.75,140.42c1.72-.08,2.67-.24,3.59-.15,2.66.28,5.42.3,7.92,1.12,2.63.86,4.78,1.78,7.18-.62,1.19-1.19,3.1-1.77,4.79-2.3,3.5-1.09,7.08-1.95,10.79-2.95,1.17,2.52-1.59,8.94-5.72,11.3-.93.53-2.01.87-2.85,1.51-3.82,2.92-3.75,6.52.26,8.84,2.97,1.72,5.96,3.62,9.2,4.61,4.29,1.31,8.07-.15,11.39-3.4,2.25-2.2,5.18-3.7,8.68-6.11-1.28,5.07-3.54,8.16-7.17,10.2-5.66,3.18-11.76,2.55-17.84,1.85-.7-.08-1.71-.67-2.03-.4-3.45,3-7.79,1.65-11.67,2.43-3.62.73-7.42.54-11.14.75-.03-.36-.06-.71-.1-1.07,2.59-.86,5.55-1.2,7.65-2.72,2.14-1.55,3.44-4.27,5.16-6.54-5.88-6.12-15.7-7.06-18.11-16.35Zm20.32,9.85c-2.29-5.02,2.45-6.95,4.05-10.35-1.61.28-3.05.74-4.11,1.65-3.7,3.15-5.25,3.35-9.41.86-.73-.44-1.5-.83-2.24-1.24-.13.17-.25.35-.38.52,2.43,2.74,4.85,5.48,7.43,8.38.5-.7.91-1.29,1.32-1.87,1.24.76,2.3,1.4,3.35,2.05Z"/>
      <path class="cls-1" d="m16.66,27.82c-1.33-.23-2.66-.44-3.98-.69-3.58-.69-5.25.45-5.18,4.21.1,5.03,1.69,9.61,5.29,13.34.74.77,1.27,1.74,2.38,3.31-4.58-.54-5.88,1.78-6.1,5.26-.41.03-.83.06-1.24.09-1.63-3-3.48-5.9-4.83-9.02C.63,38.86-.51,33.16.22,27.17c.72-5.94,4.28-7.62,9.14-4.35,2.36,1.58,4.93,2.83,7.41,4.23-.04.26-.07.51-.11.77Z"/>
      <path class="cls-1" d="m104.63,83.45c-2.9,10.38-11.1,12.95-19.94,14.53-2.79.5-5.34-2.01-4.67-4.73,1.89-7.72,3.55-10.36,10.89-9.86,4.51.31,9.05.06,13.72.06Zm-6.93,1.27c-.77.73-1.67,1.37-2.29,2.21-2.08,2.85-5.47,3.21-8.01.73-.71-.69-1.31-1.49-2.09-2.4-1.16,5.66-.43,7.17,3.56,7.82,5.2.85,8.99-2.11,8.83-8.36Z"/>
      <path class="cls-1" d="m119.03,27.88c.73-7.09,4.09-13.01,2.85-19.79-1.66.37-2.75.61-3.85.86,2.5-3.92,5.42-7.22,9.79-8.72,1.99-.68,3.44.26,3.34,2.42-.1,2.12-.22,4.43-1.11,6.28-2.85,5.91-6.05,11.64-9.15,17.43-.2.37-.69.58-1.88,1.53Z"/>
      <path class="cls-1" d="m17.13,93.52c2.63-2.46,13.39-4.14,16.68-2.4,1.97,1.05,4.46,6.71,3.62,8.83-.33.83-1.43,1.76-2.29,1.89-5.7.86-10.91,1.32-14.82-4.89-.81-1.29-2.11-2.28-3.2-3.43Zm17.29,2.25c-3.72.77-7.46,1.99-10.22-2.21,1.85,5.85,6.31,6.79,10.22,2.21Z"/>
      <path class="cls-1" d="m82.61,62.79c4.81,7.4,5.12,13.03,1.06,16.7-4.49-6.72-5.01-13.41-1.06-16.7Z"/>
      <path class="cls-1" d="m97.52,72.57c-.55-4.66,2.26-6.94,4.62-8.64,2.02-1.46,4.59.21,5.94,2.46,1.14,1.9,2.02,3.95,3.45,6.79-2.87-1.39-4.98-3.16-7.14-3.24-2.12-.08-4.3,1.57-6.87,2.63Z"/>
      <path class="cls-1" d="m29.63,88.22c-1.77-3.55-5.29-6.32-4.63-10.95.2-1.37.5-2.86,1.23-3.99.52-.81,1.83-1.11,2.78-1.63.26.93.69,1.85.75,2.79.28,4.49.47,8.98.68,13.47l-.81.32Z"/>
      <path class="cls-1" d="m73.15,28.48c3.85-3.44,11.16-2.85,13.97,1.26.5.74.75,2.44.31,2.86-.82.78-2.2,1.19-3.39,1.27-.67.04-1.97-.84-2.01-1.37-.24-3.71-2.48-3.39-5.07-2.89-1.23.24-2.54.04-3.81.04,0-.39,0-.78,0-1.16Z"/>
      <path class="cls-1" d="m124.7,147.79c1.97-1.19,3.61-2.11,5.19-3.13q5.26-3.39,6.15-8.96c1.92.93,4.2,1.26,3.22,4.34-1.52,4.79-9.33,9.12-14.56,7.75Z"/>
      <path class="cls-1" d="m22.18,67.15c1.31-4.46,9.42-10.77,14.28-10.66,1.17.03,2.65.72,3.38,1.6.73.89.69,2.4.98,3.64-1.2-.27-2.78-.16-3.51-.9-1.98-1.99-3.97-1.44-5.78-.29-3.24,2.06-6.28,4.41-9.35,6.6Z"/>
      <path class="cls-1" d="m118.62,134.41c2.55-3.16,5.74-5.49,9.76-6.48.96-.24,2.13.36,3.21.57-.4,1.25-.47,3.29-1.26,3.63-3.6,1.53-7.41,2.58-11.15,3.8-.18-.5-.37-1.01-.55-1.51Z"/>
      <path class="cls-1" d="m36.97,38.17c1.04-1.38,2.07-2.75,3.11-4.13-.08-.29-.17-.59-.25-.88-2.93,1.09-5.87,2.17-9.47,3.51,1.29-4.41,5.77-6.29,9.31-4.52,2.21,1.1,3.49,1.13,5.16-.9,1.43-1.74,3.47-1.6,5.35.71-6.16-1.08-8.43,4.48-12.43,7.06-.26-.29-.52-.57-.78-.86Z"/>
      <path class="cls-1" d="m64.32,189.9c-2.9.91-5.23.37-7.34-1.99-1.01-1.13-2.95-1.39-4.08-2.45-2.7-2.57-5.17-5.38-7.74-8.1.39-.44.79-.88,1.18-1.33,4.34,6.86,11.99,9,17.97,13.87Z"/>
      <path class="cls-1" d="m92.85,63.94c-5.04-5.25-8.94-11.11-17.39-9.74,2.76-2.6,5.23-2.88,7.93-1.69,4.2,1.85,9.39,7.4,9.47,11.43Z"/>
      <path class="cls-1" d="m40.76,42.45c-.02-2.76,1.04-3.74,3.34-4.25,2.32-.51,4.45-1.83,6.69-2.76,1.01-.42,2.05-.82,3.12-1,.23-.04,1.01,1.13.89,1.3-.64.91-1.34,1.96-2.28,2.45-2.82,1.46-5.73,2.74-8.67,3.95-.88.36-1.96.21-3.08.31Z"/>
      <path class="cls-1" d="m102.84,24.54c-2.39.73-4.42,1.52-6.53,1.9-.92.16-1.99-.52-3-.83.29-.89.31-2.11.92-2.61,3.96-3.28,7.69-2.39,8.61,1.54Z"/>
      <path class="cls-1" d="m118.86,87.87c2.58,1.98,5.44,3.7,7.66,6.02,1.94,2.04,1.56,4.53-.71,6.51-2.53-4.24-4.94-8.3-7.36-12.35.14-.06.27-.12.41-.19Z"/>
      <path class="cls-1" d="m104.52,156.78c1.83-2.1,3.72-4.15,5.48-6.31.81-1,1.83-2.15,1.96-3.31.4-3.59,2.85-2.98,5.33-2.86-2.84,1.62-4.41,3.45-5.05,7.04-.42,2.36-4.61,4.05-7.11,6.04-.2-.2-.4-.4-.6-.6Z"/>
      <path class="cls-1" d="m59.59,37.28c.75,2.98.51,5.58-1.95,7.39-.89.66-2.32.58-3.51.84.21-1.38,0-3.06.73-4.07,1.11-1.53,2.87-2.59,4.73-4.17Z"/>
      <path class="cls-1" d="m63.15,24.14c-1.19,1.39-2.15,3.43-3.65,3.99-1.48.55-3.51-.4-5.3-.7.01-.3.02-.6.04-.91-1.03.42-2.06.84-3.72,1.51,1.3-2.78,2.91-4.51,5.12-3.1,2.24,1.42,3.43,1.71,4.62-.89.22-.49,1.15-.65,1.76-.97.38.35.76.71,1.14,1.06Z"/>
      <path class="cls-1" d="m58.2,57.37c-3.51-1.41-6.7-2.62-7.8,2.26-.06.28-1.21.47-1.82.39-.21-.03-.6-1.28-.41-1.46,1.84-1.76,3.55-3.94,5.77-4.94,2.12-.95,4.17.17,4.26,3.74Z"/>
      <path class="cls-1" d="m131.87,120.42c1.57-1.83,3.05-3.74,4.8-5.39.32-.31,2.2.26,2.44.81.35.83.24,2.63-.29,2.93-1.91,1.09-4.08,1.73-6.15,2.54-.26-.3-.53-.6-.79-.9Z"/>
      <path class="cls-1" d="m99.09,32.37c-2.43.47-4.46,1.03-6.53,1.18-.7.05-1.48-.94-2.22-1.46.62-.78,1.09-2.01,1.87-2.26,2.44-.77,5.14-1.66,6.88,2.54Z"/>
      <path class="cls-1" d="m26.98,45.48c-1.99,2.61-3.98,5.23-6.06,7.96-1.79-2.57-.13-4.92,1.46-6.95.86-1.11,2.57-1.56,3.9-2.31.24.43.47.87.71,1.3Z"/>
      <path class="cls-1" d="m73.67,24.34c1.15-2.75,8-4.57,12.94-3.43.07.31.13.62.2.93-4.36.83-8.72,1.66-13.14,2.5Z"/>
      <path class="cls-1" d="m68.5,64.15c-.79,4.22-1.38,7.37-1.97,10.53-2.59-2.92-1.92-5.91-1.01-8.74.25-.77,1.8-1.12,2.98-1.79Z"/>
      <path class="cls-1" d="m66.02,41.44c-3.12-2.98-1.66-5.52-.63-7.75.39-.84,2.09-1.07,3.97-1.94-1.31,3.81-2.23,6.46-3.34,9.69Z"/>
      <path class="cls-1" d="m72.69,38.28c1.36-1.03,2.28-1.73,3.81-2.88-1.95.19-3.12.3-4.77.45,1.34-2.76,3.28-3.01,5.13-2.07.79.4,1.57,2.32,1.26,3.12-.89,2.26-2.82,2.39-5.43,1.38Z"/>
      <path class="cls-1" d="m45.85,47.08c.65-2.07.79-3.39,1.46-4.33.49-.69,1.67-.88,2.54-1.3.23,1.12.87,2.38.57,3.34-.34,1.09-1.37,2.21-2.4,2.73-.66.34-1.86-.37-2.17-.44Z"/>
      <path class="cls-1" d="m62.1,53.57c-3.25-3.48-3.54-5.45-1.43-8.54,2.02,2.21,2.9,6.74,1.43,8.54Z"/>
      <path class="cls-1" d="m25.46,41.66c1.57-1.29,2.86-2.52,4.32-3.48.55-.36,1.79-.43,2.2-.06.45.41.62,1.57.39,2.23-.79,2.25-3.68,3.02-6.91,1.32Z"/>
      <path class="cls-1" d="m14.26,85.01c-.63-1.16-1.3-1.84-1.34-2.56-.07-1.44.2-2.9.33-4.35.73.16,2.02.18,2.09.49.38,1.59.53,3.26.56,4.9,0,.37-.79.76-1.64,1.53Z"/>
      <path class="cls-1" d="m102.73,45.67c-.06-1.14-.31-2.31-.11-3.41.17-.94.78-1.86,1.4-2.62.1-.12,1.67.48,1.85.99.36.99.55,2.31.17,3.22-.39.93-1.56,1.54-2.38,2.29-.31-.16-.62-.32-.94-.48Z"/>
      <path class="cls-1" d="m59.53,65.56c-2.68,1.89-4.63,3.38-6.73,4.65-.48.29-1.45-.22-2.19-.35.14-.73.07-1.91.47-2.1,2.25-1.08,4.6-1.95,6.95-2.79.33-.12.85.33,1.5.6Z"/>
      <path class="cls-1" d="m23.97,132.38c-1.04-.34-2.52-.36-3.02-1.08-1.1-1.56-1.7-3.47-2.5-5.24.42-.22.84-.44,1.26-.66,1.56,1.94,3.11,3.88,4.67,5.83-.14.38-.27.77-.41,1.15Z"/>
      <path class="cls-1" d="m68.48,61.32c.62-1.75,1.08-3.58,1.95-5.2.43-.8,1.58-1.27,2.48-1.74.18-.1,1.06.55,1.02.7-.21.86-.44,1.8-.97,2.47-1.22,1.55-2.61,2.96-3.93,4.42-.18-.22-.36-.44-.54-.65Z"/>
      <path class="cls-1" d="m93.82,37.97c1.13,2.23,2.23,4.4,3.65,7.19-4.39-1.48-5.84-4.99-3.65-7.19Z"/>
      <path class="cls-1" d="m53.68,50.44c-2.86-.93-3.77,4.09-7.4.97,2.26-.94,4.52-1.87,6.79-2.81.21.61.41,1.23.62,1.84Z"/>
      <path class="cls-1" d="m82.98,44.65c-1.8,3.4-4.42,3.7-7.92.84,2.84-.3,5.24-.56,7.92-.84Z"/>
      <path class="cls-1" d="m98.22,34.39c1.07,1.5,1.93,2.39,2.33,3.45.12.32-1.44,1.68-1.53,1.61-1.06-.79-2.05-1.71-2.88-2.74-.08-.1,1.02-1.15,2.08-2.32Z"/>
      <path class="cls-1" d="m71.03,24.75c-1.27,1.47-2.24,2.58-3.2,3.7-.49-.79-1.57-1.88-1.35-2.32.55-1.12,1.65-2.01,2.65-2.82.12-.1,1.05.79,1.9,1.45Z"/>
      <path class="cls-1" d="m142.05,99.49c-.54,1.72-1.08,3.44-1.91,6.07-1.04-1.33-2.2-2.36-2.03-2.68.75-1.42,1.89-2.64,2.89-3.93.35.18.7.36,1.05.54Z"/>
      <path class="cls-1" d="m49.68,78.7c-1.55,2.13-3.1,4.26-4.65,6.39-.33-.22-.66-.45-.99-.67,1.44-2.2,2.89-4.41,4.33-6.61.43.3.87.59,1.3.89Z"/>
      <path class="cls-1" d="m41.17,123.4c.16,3.17.32,6.35.49,9.52-.37.01-.73.02-1.1.03v-9.52c.2,0,.41-.02.61-.03Z"/>
      <path class="cls-1" d="m58.35,72.96c1.41-2.15,2.81-4.31,4.38-6.7,1.92,4.12-2.6,4.68-3.35,7.16-.34-.15-.68-.31-1.02-.46Z"/>
      <path class="cls-1" d="m149.99,105.5c1.57.98,3.23,1.85,4.62,3.04.3.25-.4,1.67-.51,2.05-1.67-1.53-3.09-2.83-4.52-4.13.13-.32.27-.64.4-.97Z"/>
      <path class="cls-1" d="m85.99,36.81c1.1,1.54,1.84,2.47,2.37,3.5.06.12-1.36,1.32-1.55,1.2-.91-.59-1.75-1.4-2.34-2.31-.15-.24.68-1.12,1.51-2.39Z"/>
      <path class="cls-1" d="m117.83,111.89c2.53-1.77,4.36-3.06,6.13-4.29.04,2.53-2.06,4.35-6.13,4.29Z"/>
      <path class="cls-1" d="m63.01,56.32c-.58,1.61-1.15,3.22-1.73,4.83-.55-.21-1.1-.42-1.65-.63.63-1.59,1.26-3.18,1.89-4.76.5.19.99.37,1.49.56Z"/>
    </g>
  </g>
</svg>